<svg width="106" height="60" viewBox="0 0 106 60" fill="none" xmlns="http://www.w3.org/2000/svg">
<path d="M24.1462 21.1029H24.1433C21.7453 21.1029 19.8013 22.8305 19.8013 24.9616V24.9641C19.8013 27.0952 21.7453 28.8228 24.1433 28.8228H24.1462C26.5442 28.8228 28.4882 27.0952 28.4882 24.9641V24.9616C28.4882 22.8305 26.5442 21.1029 24.1462 21.1029Z" fill="#AFB1B8"/>
<path d="M56.195 19.8693C56.1882 16.9094 54.8623 14.0723 52.5074 11.979C50.1525 9.88574 46.9604 8.70673 43.6297 8.70001V8.70001C40.298 8.70539 37.1045 9.8838 34.7484 11.9772C32.3922 14.0706 31.0655 16.9085 31.0587 19.8693V19.8693V36.1922C31.0587 36.1922 56.1922 33.7045 56.195 19.8719V19.8693Z" fill="#AFB1B8"/>
<path d="M11 41.5495C11.006 43.6091 11.9291 45.5829 13.5676 47.0395C15.2061 48.4961 17.4267 49.3171 19.7442 49.3231V49.3231C22.0612 49.3171 24.2814 48.4964 25.9197 47.0404C27.5581 45.5843 28.4816 43.6112 28.4884 41.5521V41.5521V30.1944C28.4884 30.1944 11 31.9267 11 41.5495ZM19.7442 43.5845C19.2913 43.5845 18.8486 43.4652 18.472 43.2415C18.0955 43.0179 17.802 42.7001 17.6287 42.3283C17.4554 41.9564 17.41 41.5473 17.4984 41.1525C17.5867 40.7578 17.8048 40.3952 18.125 40.1106C18.4453 39.826 18.8533 39.6322 19.2975 39.5537C19.7416 39.4751 20.202 39.5154 20.6205 39.6695C21.0389 39.8235 21.3965 40.0843 21.6481 40.419C21.8997 40.7536 22.034 41.1471 22.034 41.5495C22.0351 41.8174 21.9767 42.0828 21.8622 42.3306C21.7476 42.5784 21.5791 42.8036 21.3664 42.9934C21.1536 43.1832 20.9008 43.3338 20.6224 43.4365C20.3441 43.5392 20.0456 43.5921 19.7442 43.5921V43.5845Z" fill="#AFB1B8"/>
<path d="M35.7302 39.9413V44.207H34.8513V39.9413H35.7302ZM37.4294 41.7636V42.4492H35.4899V41.7636H37.4294ZM37.6345 39.9413V40.6298H35.4899V39.9413H37.6345ZM41.6481 41.9745V42.1767C41.6481 42.5009 41.6042 42.7919 41.5163 43.0497C41.4284 43.3076 41.3044 43.5273 41.1442 43.7089C40.9841 43.8886 40.7927 44.0263 40.57 44.122C40.3493 44.2177 40.1042 44.2656 39.8347 44.2656C39.5671 44.2656 39.322 44.2177 39.0993 44.122C38.8786 44.0263 38.6872 43.8886 38.5251 43.7089C38.363 43.5273 38.237 43.3076 38.1472 43.0497C38.0593 42.7919 38.0153 42.5009 38.0153 42.1767V41.9745C38.0153 41.6484 38.0593 41.3574 38.1472 41.1015C38.235 40.8437 38.3591 40.624 38.5192 40.4423C38.6813 40.2607 38.8727 40.122 39.0934 40.0263C39.3161 39.9306 39.5612 39.8828 39.8288 39.8828C40.0983 39.8828 40.3434 39.9306 40.5641 40.0263C40.7868 40.122 40.9782 40.2607 41.1384 40.4423C41.3005 40.624 41.4255 40.8437 41.5134 41.1015C41.6032 41.3574 41.6481 41.6484 41.6481 41.9745ZM40.7604 42.1767V41.9687C40.7604 41.7421 40.7399 41.5429 40.6989 41.371C40.6579 41.1992 40.5974 41.0546 40.5173 40.9374C40.4372 40.8203 40.3395 40.7324 40.2243 40.6738C40.1091 40.6132 39.9772 40.5829 39.8288 40.5829C39.6804 40.5829 39.5485 40.6132 39.4333 40.6738C39.32 40.7324 39.2233 40.8203 39.1432 40.9374C39.0651 41.0546 39.0056 41.1992 38.9645 41.371C38.9235 41.5429 38.903 41.7421 38.903 41.9687V42.1767C38.903 42.4013 38.9235 42.6005 38.9645 42.7744C39.0056 42.9462 39.0661 43.0917 39.1462 43.2109C39.2263 43.3281 39.3239 43.4169 39.4391 43.4775C39.5544 43.538 39.6862 43.5683 39.8347 43.5683C39.9831 43.5683 40.1149 43.538 40.2302 43.4775C40.3454 43.4169 40.4421 43.3281 40.5202 43.2109C40.5983 43.0917 40.6579 42.9462 40.6989 42.7744C40.7399 42.6005 40.7604 42.4013 40.7604 42.1767ZM44.5016 43.0908C44.5016 43.0146 44.4899 42.9462 44.4665 42.8857C44.445 42.8232 44.404 42.7665 44.3434 42.7158C44.2829 42.663 44.1979 42.6113 44.0886 42.5605C43.9792 42.5097 43.8376 42.457 43.6638 42.4023C43.4704 42.3398 43.2868 42.2695 43.113 42.1913C42.9411 42.1132 42.7888 42.0224 42.6559 41.9189C42.5251 41.8134 42.4216 41.6913 42.3454 41.5527C42.2712 41.414 42.2341 41.2529 42.2341 41.0693C42.2341 40.8915 42.2731 40.7304 42.3513 40.5859C42.4294 40.4394 42.5388 40.3144 42.6794 40.2109C42.82 40.1054 42.986 40.0244 43.1774 39.9677C43.3708 39.9111 43.5827 39.8828 43.8132 39.8828C44.1276 39.8828 44.402 39.9394 44.6364 40.0527C44.8708 40.166 45.0524 40.3212 45.1813 40.5185C45.3122 40.7158 45.3776 40.9413 45.3776 41.1953H44.5046C44.5046 41.0703 44.4782 40.9609 44.4255 40.8671C44.3747 40.7714 44.2966 40.6962 44.1911 40.6415C44.0876 40.5869 43.9567 40.5595 43.7985 40.5595C43.6462 40.5595 43.5192 40.5829 43.4177 40.6298C43.3161 40.6747 43.2399 40.7363 43.1891 40.8144C43.1384 40.8906 43.113 40.9765 43.113 41.0722C43.113 41.1445 43.1306 41.2099 43.1657 41.2685C43.2028 41.3271 43.2575 41.3818 43.3298 41.4326C43.402 41.4833 43.4909 41.5312 43.5964 41.5761C43.7018 41.621 43.8239 41.665 43.9626 41.7079C44.195 41.7783 44.3991 41.8574 44.5749 41.9453C44.7526 42.0331 44.9011 42.1318 45.0202 42.2411C45.1393 42.3505 45.2292 42.4745 45.2897 42.6132C45.3503 42.7519 45.3806 42.9091 45.3806 43.0849C45.3806 43.2704 45.3444 43.4365 45.2722 43.5829C45.1999 43.7294 45.0954 43.8535 44.9587 43.955C44.822 44.0566 44.6589 44.1337 44.4694 44.1865C44.28 44.2392 44.0681 44.2656 43.8337 44.2656C43.6227 44.2656 43.4147 44.2382 43.2097 44.1835C43.0046 44.1269 42.8181 44.0419 42.6501 43.9286C42.4841 43.8154 42.3513 43.6708 42.2516 43.4951C42.152 43.3193 42.1022 43.1113 42.1022 42.871H42.9841C42.9841 43.0038 43.0046 43.1161 43.0456 43.2079C43.0866 43.2997 43.1442 43.374 43.2184 43.4306C43.2946 43.4872 43.3845 43.5283 43.488 43.5536C43.5934 43.579 43.7087 43.5917 43.8337 43.5917C43.986 43.5917 44.111 43.5703 44.2087 43.5273C44.3083 43.4843 44.3815 43.4247 44.4284 43.3486C44.4772 43.2724 44.5016 43.1865 44.5016 43.0908ZM47.8854 39.9413V44.207H47.0095V39.9413H47.8854ZM49.1979 39.9413V40.6298H45.7175V39.9413H49.1979ZM52.5612 43.5214V44.207H50.2907V43.5214H52.5612ZM50.5778 39.9413V44.207H49.6989V39.9413H50.5778ZM52.2653 41.6786V42.3466H50.2907V41.6786H52.2653ZM52.5583 39.9413V40.6298H50.2907V39.9413H52.5583ZM53.0739 39.9413H54.6647C54.9909 39.9413 55.2712 39.9902 55.5056 40.0878C55.7419 40.1855 55.9235 40.33 56.0505 40.5214C56.1774 40.7128 56.2409 40.9482 56.2409 41.2275C56.2409 41.456 56.2018 41.6523 56.1237 41.8163C56.0475 41.9785 55.9391 42.1142 55.7985 42.2236C55.6599 42.331 55.4968 42.4169 55.3093 42.4814L55.0309 42.6279H53.6481L53.6423 41.9423H54.6706C54.8249 41.9423 54.9528 41.915 55.0544 41.8603C55.1559 41.8056 55.2321 41.7294 55.2829 41.6318C55.3356 41.5341 55.362 41.4208 55.362 41.2919C55.362 41.1552 55.3366 41.037 55.2858 40.9374C55.235 40.8378 55.1579 40.7617 55.0544 40.7089C54.9509 40.6562 54.821 40.6298 54.6647 40.6298H53.9528V44.207H53.0739V39.9413ZM55.4587 44.207L54.486 42.3056L55.4147 42.2997L56.3991 44.166V44.207H55.4587ZM60.0729 42.6865H58.986V42.0009H60.0729C60.2409 42.0009 60.3776 41.9736 60.4831 41.9189C60.5886 41.8622 60.6657 41.7841 60.7145 41.6845C60.7634 41.5849 60.7878 41.4726 60.7878 41.3476C60.7878 41.2206 60.7634 41.1025 60.7145 40.9931C60.6657 40.8837 60.5886 40.7958 60.4831 40.7294C60.3776 40.663 60.2409 40.6298 60.0729 40.6298H59.2907V44.207H58.4118V39.9413H60.0729C60.4069 39.9413 60.6931 40.0019 60.9313 40.123C61.1716 40.2421 61.3552 40.4072 61.4821 40.6181C61.6091 40.829 61.6725 41.0703 61.6725 41.3417C61.6725 41.6171 61.6091 41.8554 61.4821 42.0566C61.3552 42.2578 61.1716 42.413 60.9313 42.5224C60.6931 42.6318 60.4069 42.6865 60.0729 42.6865ZM65.1413 43.5214V44.207H62.8708V43.5214H65.1413ZM63.1579 39.9413V44.207H62.279V39.9413H63.1579ZM64.8454 41.6786V42.3466H62.8708V41.6786H64.8454ZM65.1384 39.9413V40.6298H62.8708V39.9413H65.1384ZM67.6198 39.9413V44.207H66.7438V39.9413H67.6198ZM68.9323 39.9413V40.6298H65.4518V39.9413H68.9323ZM72.2956 43.5214V44.207H70.0251V43.5214H72.2956ZM70.3122 39.9413V44.207H69.4333V39.9413H70.3122ZM71.9997 41.6786V42.3466H70.0251V41.6786H71.9997ZM72.2927 39.9413V40.6298H70.0251V39.9413H72.2927ZM72.8083 39.9413H74.3991C74.7253 39.9413 75.0056 39.9902 75.2399 40.0878C75.4763 40.1855 75.6579 40.33 75.7849 40.5214C75.9118 40.7128 75.9753 40.9482 75.9753 41.2275C75.9753 41.456 75.9362 41.6523 75.8581 41.8163C75.7819 41.9785 75.6735 42.1142 75.5329 42.2236C75.3942 42.331 75.2311 42.4169 75.0436 42.4814L74.7653 42.6279H73.3825L73.3766 41.9423H74.405C74.5593 41.9423 74.6872 41.915 74.7888 41.8603C74.8903 41.8056 74.9665 41.7294 75.0173 41.6318C75.07 41.5341 75.0964 41.4208 75.0964 41.2919C75.0964 41.1552 75.071 41.037 75.0202 40.9374C74.9694 40.8378 74.8923 40.7617 74.7888 40.7089C74.6852 40.6562 74.5554 40.6298 74.3991 40.6298H73.6872V44.207H72.8083V39.9413ZM75.1931 44.207L74.2204 42.3056L75.1491 42.2997L76.1335 44.166V44.207H75.1931ZM78.8727 43.0908C78.8727 43.0146 78.861 42.9462 78.8376 42.8857C78.8161 42.8232 78.7751 42.7665 78.7145 42.7158C78.654 42.663 78.569 42.6113 78.4597 42.5605C78.3503 42.5097 78.2087 42.457 78.0349 42.4023C77.8415 42.3398 77.6579 42.2695 77.4841 42.1913C77.3122 42.1132 77.1599 42.0224 77.027 41.9189C76.8962 41.8134 76.7927 41.6913 76.7165 41.5527C76.6423 41.414 76.6052 41.2529 76.6052 41.0693C76.6052 40.8915 76.6442 40.7304 76.7224 40.5859C76.8005 40.4394 76.9099 40.3144 77.0505 40.2109C77.1911 40.1054 77.3571 40.0244 77.5485 39.9677C77.7419 39.9111 77.9538 39.8828 78.1843 39.8828C78.4987 39.8828 78.7731 39.9394 79.0075 40.0527C79.2419 40.166 79.4235 40.3212 79.5524 40.5185C79.6833 40.7158 79.7487 40.9413 79.7487 41.1953H78.8757C78.8757 41.0703 78.8493 40.9609 78.7966 40.8671C78.7458 40.7714 78.6677 40.6962 78.5622 40.6415C78.4587 40.5869 78.3278 40.5595 78.1696 40.5595C78.0173 40.5595 77.8903 40.5829 77.7888 40.6298C77.6872 40.6747 77.611 40.7363 77.5602 40.8144C77.5095 40.8906 77.4841 40.9765 77.4841 41.0722C77.4841 41.1445 77.5016 41.2099 77.5368 41.2685C77.5739 41.3271 77.6286 41.3818 77.7009 41.4326C77.7731 41.4833 77.862 41.5312 77.9675 41.5761C78.0729 41.621 78.195 41.665 78.3337 41.7079C78.5661 41.7783 78.7702 41.8574 78.946 41.9453C79.1237 42.0331 79.2722 42.1318 79.3913 42.2411C79.5104 42.3505 79.6003 42.4745 79.6608 42.6132C79.7214 42.7519 79.7516 42.9091 79.7516 43.0849C79.7516 43.2704 79.7155 43.4365 79.6432 43.5829C79.571 43.7294 79.4665 43.8535 79.3298 43.955C79.1931 44.0566 79.03 44.1337 78.8405 44.1865C78.6511 44.2392 78.4391 44.2656 78.2048 44.2656C77.9938 44.2656 77.7858 44.2382 77.5807 44.1835C77.3757 44.1269 77.1891 44.0419 77.0212 43.9286C76.8552 43.8154 76.7224 43.6708 76.6227 43.4951C76.5231 43.3193 76.4733 43.1113 76.4733 42.871H77.3552C77.3552 43.0038 77.3757 43.1161 77.4167 43.2079C77.4577 43.2997 77.5153 43.374 77.5895 43.4306C77.6657 43.4872 77.7556 43.5283 77.8591 43.5536C77.9645 43.579 78.0798 43.5917 78.2048 43.5917C78.3571 43.5917 78.4821 43.5703 78.5798 43.5273C78.6794 43.4843 78.7526 43.4247 78.7995 43.3486C78.8483 43.2724 78.8727 43.1865 78.8727 43.0908Z" fill="#AFB1B8"/>
</svg>
