<!-- Generated by IcoMoon.io -->
<svg version="1.1" xmlns="http://www.w3.org/2000/svg" width="57" height="32" viewBox="0 0 57 32">
<title>logo-1</title>
<path d="M20.267 3.733l3.738 3.538-6.938-0.004v17.166h18.133v-6.564l3.733 3.534v-17.671h-18.667zM35.036 17.455l-10.597-10.032h10.597v10.032zM31.746 21.923h-11.81v-11.545h0.835v10.764h10.975v0.782zM22.291 27.624l-0.44-0.905h-0.363l0.638 1.198v0.698h0.329v-0.698l0.638-1.198h-0.362l-0.44 0.905zM23.914 26.72h0.078l0.716 1.896h-0.344l-0.153-0.444h-0.734l-0.153 0.444h-0.342l0.714-1.896h0.219zM23.566 27.912h0.555l-0.278-0.804-0.277 0.804zM25.857 27.598c-0.014-0.018-0.028-0.036-0.041-0.053-0.049-0.064-0.086-0.126-0.113-0.186s-0.040-0.123-0.040-0.188c0-0.099 0.020-0.184 0.061-0.255s0.099-0.126 0.173-0.164c0.075-0.039 0.162-0.059 0.262-0.059 0.096 0 0.179 0.020 0.249 0.059s0.124 0.089 0.161 0.152c0.038 0.063 0.057 0.133 0.057 0.208 0 0.060-0.011 0.115-0.033 0.164s-0.052 0.095-0.090 0.135c-0.038 0.041-0.082 0.079-0.133 0.116l-0.132 0.096 0.375 0.443c0.012-0.024 0.024-0.050 0.034-0.077 0.032-0.083 0.048-0.176 0.048-0.277h0.271c0 0.092-0.009 0.179-0.027 0.262s-0.046 0.159-0.085 0.229c-0.016 0.029-0.034 0.057-0.054 0.084l0.278 0.328h-0.363l-0.11-0.13c-0.060 0.045-0.124 0.081-0.195 0.106-0.092 0.033-0.19 0.049-0.294 0.049-0.126 0-0.235-0.023-0.327-0.069s-0.163-0.109-0.214-0.19c-0.049-0.081-0.074-0.173-0.074-0.277 0-0.077 0.016-0.145 0.048-0.203s0.076-0.114 0.132-0.164c0.051-0.047 0.11-0.093 0.175-0.14zM26.013 27.789l-0.039 0.029c-0.046 0.037-0.080 0.073-0.103 0.108s-0.036 0.065-0.043 0.094c-0.007 0.029-0.010 0.054-0.010 0.076 0 0.056 0.012 0.106 0.035 0.151s0.059 0.081 0.105 0.108c0.047 0.026 0.104 0.039 0.171 0.039 0.072 0 0.142-0.016 0.21-0.048 0.034-0.017 0.066-0.036 0.097-0.060l-0.422-0.496zM26.088 27.442l0.116-0.078c0.055-0.036 0.094-0.072 0.117-0.107s0.035-0.080 0.035-0.133c0-0.045-0.017-0.087-0.052-0.125s-0.084-0.057-0.147-0.057c-0.044 0-0.082 0.010-0.112 0.031s-0.053 0.047-0.069 0.081c-0.015 0.033-0.022 0.070-0.022 0.111 0 0.039 0.010 0.079 0.030 0.121s0.047 0.084 0.082 0.129c0.007 0.009 0.014 0.018 0.022 0.028zM29.404 27.998h-0.326c-0.010 0.082-0.029 0.152-0.060 0.21s-0.073 0.099-0.131 0.129c-0.057 0.030-0.132 0.044-0.225 0.044-0.076 0-0.142-0.015-0.197-0.046s-0.1-0.073-0.135-0.129c-0.035-0.056-0.061-0.122-0.078-0.199s-0.025-0.165-0.025-0.26v-0.16c0-0.101 0.009-0.19 0.027-0.268s0.047-0.145 0.085-0.199 0.084-0.095 0.139-0.122c0.056-0.028 0.121-0.042 0.195-0.042 0.091 0 0.165 0.016 0.221 0.047s0.099 0.075 0.128 0.133c0.029 0.058 0.049 0.128 0.057 0.21h0.326c-0.013-0.127-0.049-0.239-0.107-0.337s-0.138-0.175-0.242-0.23c-0.104-0.056-0.232-0.083-0.383-0.083-0.119 0-0.226 0.021-0.322 0.063s-0.176 0.102-0.243 0.181c-0.068 0.078-0.12 0.172-0.156 0.283s-0.053 0.233-0.053 0.37v0.158c0 0.136 0.017 0.26 0.052 0.37s0.087 0.204 0.154 0.282c0.067 0.077 0.147 0.137 0.241 0.18s0.199 0.063 0.316 0.063c0.153 0 0.283-0.028 0.389-0.083s0.19-0.132 0.249-0.228c0.059-0.097 0.094-0.208 0.104-0.332zM31.213 27.72v-0.104c0-0.143-0.019-0.271-0.057-0.384s-0.091-0.21-0.16-0.29c-0.069-0.081-0.152-0.142-0.249-0.184s-0.203-0.064-0.32-0.064c-0.116 0-0.223 0.021-0.319 0.064s-0.178 0.103-0.249 0.184c-0.070 0.080-0.123 0.177-0.162 0.29s-0.057 0.241-0.057 0.384v0.104c0 0.143 0.019 0.272 0.057 0.385s0.094 0.21 0.164 0.29c0.070 0.080 0.153 0.141 0.249 0.184s0.203 0.063 0.319 0.063c0.117 0 0.224-0.021 0.32-0.063s0.179-0.104 0.247-0.184c0.069-0.080 0.123-0.177 0.16-0.29s0.056-0.242 0.056-0.385zM30.886 27.613v0.107c0 0.106-0.010 0.2-0.031 0.281s-0.049 0.151-0.089 0.207c-0.039 0.056-0.087 0.098-0.143 0.126s-0.121 0.042-0.194 0.042c-0.072 0-0.136-0.014-0.193-0.042s-0.105-0.071-0.146-0.126c-0.040-0.056-0.070-0.125-0.091-0.207s-0.031-0.175-0.031-0.281v-0.107c0-0.106 0.010-0.199 0.031-0.28s0.051-0.15 0.090-0.204c0.040-0.056 0.088-0.097 0.145-0.125s0.121-0.043 0.193-0.043 0.137 0.014 0.194 0.043c0.057 0.028 0.105 0.070 0.145 0.125s0.070 0.123 0.090 0.204c0.021 0.081 0.031 0.174 0.031 0.28z"></path>
</svg>
